<svg xmlns="http://www.w3.org/2000/svg" version="1.1" xmlns:xlink="http://www.w3.org/1999/xlink" width="512" height="512" x="0" y="0" viewBox="0 0 32 32" style="enable-background:new 0 0 512 512" xml:space="preserve" class=""><circle r="16" cx="16" cy="16" fill="#0c0e12" shape="circle"></circle><g transform="matrix(0.6000000000000009,0,0,0.6000000000000009,6.399999999999997,6.399999999999997)"><path d="M12 3a1 1 0 0 1-1 1H7C5.346 4 4 5.346 4 7v4a1 1 0 0 1-2 0V7c0-2.757 2.243-5 5-5h4a1 1 0 0 1 1 1zm13-1h-4a1 1 0 1 0 0 2h4c1.654 0 3 1.346 3 3v4a1 1 0 1 0 2 0V7c0-2.757-2.243-5-5-5zM11 28H7c-1.654 0-3-1.346-3-3v-4a1 1 0 1 0-2 0v4c0 2.757 2.243 5 5 5h4a1 1 0 1 0 0-2zm18-8a1 1 0 0 0-1 1v4c0 1.654-1.346 3-3 3h-4a1 1 0 1 0 0 2h4c2.757 0 5-2.243 5-5v-4a1 1 0 0 0-1-1z" fill="#e8ff47" opacity="1" data-original="#000000"></path></g></svg>
