<svg xmlns="http://www.w3.org/2000/svg" version="1.1" xmlns:xlink="http://www.w3.org/1999/xlink" width="512" height="512" x="0" y="0" viewBox="0 0 48 48" style="enable-background:new 0 0 512 512" xml:space="preserve" fill-rule="evenodd" class=""><circle r="24" cx="24" cy="24" fill="#e8ff47" shape="circle"></circle><g transform="matrix(-0.5999999999999999,7.347880794884118e-17,-7.347880794884118e-17,-0.5999999999999999,38.28079605102539,38.349602508544926)"><path d="M7.828 40.066H14.4a2.001 2.001 0 0 1 0 4H7.733a3.917 3.917 0 0 1-3.906-3.905v-6.668c0-1.103.897-2 2-2s2 .897 2 2zM40.022 40.066v-6.573c0-1.103.897-2 2-2s2 .897 2 2v6.668a3.917 3.917 0 0 1-3.905 3.905H33.45a2.001 2.001 0 0 1 0-4zM40.022 7.871H33.45a2.001 2.001 0 0 1 0-4h6.667a3.917 3.917 0 0 1 3.906 3.905v6.667c0 1.104-.897 2-2 2s-2-.896-2-2zM7.828 7.871v6.572c0 1.104-.897 2-2 2s-2-.896-2-2V7.776a3.917 3.917 0 0 1 3.905-3.905H14.4a2.001 2.001 0 0 1 0 4zM3.923 25.969a2.001 2.001 0 0 1 0-4h40.005a2.001 2.001 0 0 1 0 4z" fill="#0C0E12" opacity="1" data-original="#000000" class=""></path></g></svg>